<svg width="876" height="907" viewBox="0 0 876 907" fill="none" xmlns="http://www.w3.org/2000/svg">
        <path id="corpus" d="M380.893 0H460.427C463.813 0.36 467.2 0.76 470.6 0.84C521.747 1.09333 572.88 1.98667 624.013 2.41333C648.44 3.38667 672.893 3.08 697.32 4.14667C746.2 5.16 795.053 6.45333 843.933 7.58667C849.52 7.77333 855.16 7.72 860.693 8.76C863.253 9.30667 866.067 10.16 867.653 12.44C869.747 15.4133 870.04 19.1867 870.24 22.6933C871.52 88.4667 872.24 154.24 873.68 220.013C873.773 231.093 873.88 242.187 874.12 253.28C874.427 289.293 873.933 325.333 874.92 361.333C875 384.453 875.213 407.56 875.173 430.667C875.053 437.64 875.093 444.627 876 451.56V543.093C875.453 547.813 875.08 552.56 875.133 557.32C875.2 571.107 875.053 584.893 874.88 598.667C873.947 621.253 874.387 643.853 874.04 666.453C873.6 687.107 874.107 707.813 872.587 728.44C872.12 732.48 871.773 736.773 869.573 740.32C866.08 741.893 862.2 742.013 858.467 742.413C846.453 743.347 834.493 744.853 822.56 746.44C816.8 747.267 810.813 748.067 805.707 751.067C798.533 755.253 793.347 761.933 788.613 768.6C786.893 770.813 785.32 773.373 782.787 774.747C778.933 776.187 774.733 776.107 770.693 776.32C755.547 776.533 740.4 776.533 725.24 776.427C722.133 776.44 718.987 776.44 715.947 777.173C715.173 780.64 714.947 784.2 714.187 787.68C710.4 788.507 706.507 788.413 702.667 788.44C665.32 788.24 627.973 788.987 590.613 788.933C581.587 788.56 573.387 793.16 566.08 797.933C565.707 802.227 566.96 806.453 568.093 810.56C569.733 815.813 571.347 821.147 574.013 825.987C576.2 830.013 581.147 830.867 585.067 832.413C595.067 835.467 604.907 839.253 613.867 844.76C619 847.533 623.467 851.96 629.467 852.84C631.227 853.4 633.36 853.267 634.853 854.52C637.133 857.347 638.413 860.8 639.947 864.053C643.32 872.013 647.48 879.813 648.827 888.453C649.507 893.04 650.16 897.693 649.92 902.347C634.573 905.973 618.587 904.067 603.093 906.667H344.907C336.213 905.493 327.427 905.827 318.68 905.693C293.8 905.16 268.893 905.24 244.053 903.707C238.24 903.253 232.307 903.053 226.733 901.213C224.72 896.307 226.52 890.893 227.267 885.907C230.013 874.093 232.907 861.28 241.64 852.333C246.92 850.64 252.773 850.987 257.773 848.32C269.493 842.453 281.307 836.667 293.733 832.413C297.28 830.987 301.733 830.053 303.48 826.213C307.013 819.293 309.88 811.893 311.147 804.213C311.4 801.493 311.973 797.933 309.347 796.147C304.547 792.707 299.44 788.787 293.36 788.293C253.813 787.12 214.227 787.587 174.667 786.387C169 786.267 163.307 786.653 157.653 786.053C157.027 782.6 156.96 779.093 156.293 775.667C154.88 774.213 152.56 774.88 150.76 774.587C134.267 774.72 117.76 774.307 101.253 774.893C98.3467 774.867 95.3467 775.08 92.5333 774.213C90.5733 773.093 89.0933 771.347 87.6 769.72C82.1067 763.267 76.6933 756.613 69.9867 751.36C65.4533 747.68 59.52 746.8 53.92 745.933C41.04 744.04 28.1733 742.08 15.2133 740.773C11.88 740.333 8.4 740.12 5.29333 738.707C2.37333 736.8 1.36 733.173 0 730.16V399.587C1.41333 389.107 0.813333 378.52 1.10667 367.987C2.01333 339.56 1.89333 311.107 2.52 282.667C3.10667 269.773 2.97333 256.867 3.10667 243.96C3.69333 207.973 4.64 171.987 5.08 136C6.2 109.347 5.84 82.6667 6.78667 56C7.10667 46.2933 6.69333 36.5733 7.13333 26.8533C7.46667 22.3467 7.76 17.7067 9.53333 13.4933C10.4933 11.2 13.24 10.7067 15.4 10.1867C22.2 9.05333 29.1333 9.10667 36 8.98667C60.4667 8.88 84.8667 7 109.333 6.96C130.653 6.04 152 6.16 173.32 5.34667C194.653 4.64 216.013 4.58667 237.347 3.73333C256 3.22667 274.68 3.28 293.333 2.4C318.693 2.04 344.053 1.34667 369.413 0.933333C373.253 0.853333 377.08 0.44 380.893 0ZM380.547 84.64C286.573 84.7467 192.627 87 98.72 90.4533C92.5333 90.8667 86.24 90.5733 80.16 92C79.2667 97.4533 79.48 103.013 79.2667 108.52C78.2667 134.107 78.28 159.72 77.5733 185.32C76.84 239.107 76.1467 292.893 75.5467 346.68C75.2933 431.56 75.5067 516.44 75.48 601.333C75.5067 606.12 75.1867 610.947 75.9333 615.707C121.707 618.053 167.56 618.813 213.373 620.333C243.147 620.973 272.92 621.92 302.707 621.92C346.24 622.88 389.787 622.56 433.333 622.747C475.453 622.547 517.573 622.907 559.68 622.053C633.56 621.493 707.413 618.893 781.253 616.427C786.053 616.213 790.88 616.24 795.667 615.64C796.307 604.213 795.76 592.76 796.053 581.32C796.587 561.333 796.413 541.333 796.48 521.333C796.507 417.773 796.52 314.227 796.333 210.667C796.267 172.867 795.813 135.053 796.04 97.24C795.787 95.3467 796.427 93.08 795.147 91.48C791.027 90.7467 786.827 90.7867 782.653 90.6133C746.227 89.2267 709.787 87.9467 673.333 87.1733C646.227 86.4667 619.12 85.24 591.987 85.3067C564.427 84.6533 536.853 84.8533 509.28 84.76C466.373 84.1733 423.453 83.4933 380.547 84.64ZM668.547 691.253C660.907 694.253 655.853 702.507 656.707 710.693C656.867 720.6 666.08 729.28 676.013 728.653C685.293 728.867 693.667 721.067 694.56 711.92C695.427 705.52 693.053 698.773 688.12 694.56C682.92 689.84 675.027 688.84 668.547 691.253ZM176.507 693.813C169.827 695.76 167.133 704.693 171.173 710.213C174.533 715.293 182.4 716.213 186.96 712.253C191.68 708.467 192 700.533 187.627 696.373C184.827 693.413 180.307 692.653 176.507 693.813ZM243.147 695.12C237.56 696.587 234.347 703.28 236.72 708.56C239.48 715.293 249.4 716.72 254.4 711.733C258.347 708.12 258.347 701.2 254.387 697.6C251.507 694.707 246.973 694.027 243.147 695.12Z" fill="#FF0000"/>
        <path id="power" d="M671.006 689.52C677.122 688.062 684.001 689.697 688.577 694.083C694.121 698.986 696.273 707.173 694.257 714.256C692.391 721.598 685.826 727.536 678.28 728.463C671.497 729.511 664.277 726.651 660.177 721.148C655.069 714.732 654.606 705.102 659.006 698.196C661.648 693.865 666.048 690.65 671.006 689.52Z" fill="white"/>
        <path id="right" d="M242.8 694.477C247.424 693.13 252.951 694.658 255.686 698.768C258.685 703.003 257.686 709.432 253.52 712.556C248.035 717.055 238.399 715.167 235.76 708.335C233.344 702.767 236.955 695.88 242.8 694.477Z" fill="white"/>
        <path id="left" d="M175.508 693.98C181.808 690.891 190.177 695.477 190.858 702.486C191.892 708.419 187.143 714.515 181.128 714.978C175.1 715.794 169.044 710.664 169.03 704.554C168.677 700.118 171.453 695.736 175.508 693.98Z" fill="white"/>
        <path id="display" d="M410.57 84.1602C433.515 83.693 456.474 84.4004 479.419 84.3604C506.128 84.4939 532.824 84.5606 559.519 84.7475C589.339 85.4816 619.171 84.921 648.964 86.416C695.962 87.4838 742.959 88.872 789.931 90.8074C792.133 90.9409 794.362 91.1945 796.511 91.8219C796.938 238.088 797.072 384.381 796.965 530.66C797.005 557.356 796.498 584.052 796.645 610.748C796.364 612.55 796.912 614.779 795.55 616.234C788.102 617.221 780.56 616.981 773.072 617.448C702.796 619.717 632.506 622.147 562.176 622.747C525.269 623.588 488.335 623.108 451.428 623.361C430.058 623.949 408.702 623.094 387.332 623.295C290.76 623.482 194.214 620.759 97.7092 617.462C90.2744 616.954 82.7462 617.288 75.3915 616.033C75.1245 613.391 75.1512 610.734 75.1646 608.091C75.2447 514.176 74.5773 420.273 75.4716 326.371C76.0856 306.389 75.5784 286.381 76.1924 266.399C76.9932 209.857 77.5138 153.316 79.2757 96.8006C79.7029 94.972 78.942 91.2212 81.7584 91.288C98.6035 90.2335 115.489 89.4993 132.374 89.2324C191.985 87.2435 251.597 85.4282 311.235 85.1212C344.338 84.3604 377.454 84.7208 410.57 84.1602Z" fill="white"/>
</svg>
